{
  "source": "C:\\Users\\Peter\\Desktop\\stuff\\MIUN\\quantitative_research\\video_compression\\videos\\UVG\\HoneyBee_1920x1080_120fps_420_8bit_YUV.y4m",
  "output": "C:\\Users\\Peter\\Desktop\\stuff\\MIUN\\quantitative_research\\video_compression\\compressed_videos\\UVG\\vp9\\4\\HoneyBee_1920x1080_120fps_420_8bit_YUV_vp9.webm",
  "codec": "vp9",
  "ok": "[yuv4mpegpipe @ 000001e0a4d352c0] Stream #0: not enough frames to estimate rate; consider increasing probesize\nInput #0, yuv4mpegpipe, from 'C:\\Users\\Peter\\Desktop\\stuff\\MIUN\\quantitative_research\\video_compression\\videos\\UVG\\HoneyBee_1920x1080_120fps_420_8bit_YUV.y4m':\n  Duration: 00:00:05.00, start: 0.000000, bitrate: 2985989 kb/s\n  Stream #0:0: Video: rawvideo (I420 / 0x30323449), yuv420p(progressive), 1920x1080, 120 fps, 120 tbr, 120 tbn\n[out#0/webm @ 000001e0a4d39b80] Codec AVOption b:a (set bitrate (in bits/s)) has not been used for any stream. The most likely reason is either wrong type (e.g. a video option with no video streams) or that it is a private option of some decoder which was not actually used for any stream.\nStream mapping:\n  Stream #0:0 -> #0:0 (rawvideo (native) -> vp9 (libvpx-vp9))\nPress [q] to stop, [?] for help\n[libvpx-vp9 @ 000001e0a4d3cec0] v1.15.2-100-g40561f514\nOutput #0, webm, to 'C:\\Users\\Peter\\Desktop\\stuff\\MIUN\\quantitative_research\\video_compression\\compressed_videos\\UVG\\vp9\\4\\HoneyBee_1920x1080_120fps_420_8bit_YUV_vp9.webm':\n  Metadata:\n    encoder         : Lavf62.3.100\n  Stream #0:0: Video: vp9, yuv420p(tv, progressive), 1920x1080, q=2-31, 4000 kb/s, 120 fps, 1k tbn\n    Metadata:\n      encoder         : Lavc62.11.100 libvpx-vp9\n    Side data:\n      cpb: bitrate max/min/avg: 0/0/0 buffer size: 4000000 vbv_delay: N/A\nframe=    4 fps=0.0 q=43.0 size=       0KiB time=00:00:00.03 bitrate= 115.4kbits/s speed=0.065x elapsed=0:00:00.51    \nframe=   10 fps=9.7 q=32.0 size=       0KiB time=00:00:00.08 bitrate=  46.2kbits/s speed=0.0809x elapsed=0:00:01.02    \nframe=   15 fps=9.6 q=29.0 size=       0KiB time=00:00:00.12 bitrate=  30.8kbits/s speed=0.0803x elapsed=0:00:01.55    \nframe=   20 fps=9.6 q=21.0 size=       0KiB time=00:00:00.16 bitrate=  23.1kbits/s speed=0.0799x elapsed=0:00:02.08    \nframe=   25 fps=9.6 q=23.0 size=       0KiB time=00:00:00.20 bitrate=  18.5kbits/s speed=0.08x elapsed=0:00:02.60    \nframe=   30 fps=9.6 q=22.0 size=       0KiB time=00:00:00.25 bitrate=  15.4kbits/s speed=0.08x elapsed=0:00:03.12    \nframe=   33 fps=9.1 q=20.0 size=       0KiB time=00:00:00.27 bitrate=  14.0kbits/s speed=0.0756x elapsed=0:00:03.63    \nframe=   37 fps=8.9 q=21.0 size=       0KiB time=00:00:00.30 bitrate=  12.5kbits/s speed=0.074x elapsed=0:00:04.16    \nframe=   41 fps=8.7 q=21.0 size=       0KiB time=00:00:00.34 bitrate=  11.3kbits/s speed=0.0729x elapsed=0:00:04.68    \nframe=   45 fps=8.6 q=21.0 size=       0KiB time=00:00:00.37 bitrate=  10.3kbits/s speed=0.0719x elapsed=0:00:05.21    \nframe=   46 fps=8.0 q=12.0 size=       0KiB time=00:00:00.38 bitrate=  10.0kbits/s speed=0.0667x elapsed=0:00:05.74    \nframe=   49 fps=7.8 q=24.0 size=       0KiB time=00:00:00.40 bitrate=   9.4kbits/s speed=0.0651x elapsed=0:00:06.26    \nframe=   52 fps=7.6 q=19.0 size=       0KiB time=00:00:00.43 bitrate=   8.9kbits/s speed=0.0636x elapsed=0:00:06.81    \nframe=   55 fps=7.5 q=21.0 size=       0KiB time=00:00:00.45 bitrate=   8.4kbits/s speed=0.0624x elapsed=0:00:07.34    \nframe=   58 fps=7.4 q=21.0 size=       0KiB time=00:00:00.48 bitrate=   8.0kbits/s speed=0.0613x elapsed=0:00:07.88    \nframe=   60 fps=7.1 q=20.0 size=       0KiB time=00:00:00.50 bitrate=   7.7kbits/s speed=0.0593x elapsed=0:00:08.42    \nframe=   61 fps=6.8 q=11.0 size=       0KiB time=00:00:00.50 bitrate=   7.6kbits/s speed=0.0566x elapsed=0:00:08.97    \nframe=   64 fps=6.7 q=21.0 size=       0KiB time=00:00:00.53 bitrate=   7.2kbits/s speed=0.0561x elapsed=0:00:09.51    \nframe=   67 fps=6.7 q=20.0 size=       0KiB time=00:00:00.55 bitrate=   6.9kbits/s speed=0.0555x elapsed=0:00:10.06    \nframe=   69 fps=6.5 q=21.0 size=       0KiB time=00:00:00.57 bitrate=   6.7kbits/s speed=0.0543x elapsed=0:00:10.58    \nframe=   73 fps=6.6 q=20.0 size=       0KiB time=00:00:00.60 bitrate=   6.3kbits/s speed=0.0546x elapsed=0:00:11.14    \nframe=   75 fps=6.4 q=20.0 size=       0KiB time=00:00:00.62 bitrate=   6.2kbits/s speed=0.0535x elapsed=0:00:11.69    \nframe=   77 fps=6.3 q=20.0 size=       0KiB time=00:00:00.64 bitrate=   6.0kbits/s speed=0.0524x elapsed=0:00:12.24    \nframe=   80 fps=6.3 q=20.0 size=       0KiB time=00:00:00.66 bitrate=   5.8kbits/s speed=0.0521x elapsed=0:00:12.79    \nframe=   83 fps=6.2 q=21.0 size=       0KiB time=00:00:00.69 bitrate=   5.6kbits/s speed=0.0519x elapsed=0:00:13.33    \nframe=   86 fps=6.2 q=20.0 size=       0KiB time=00:00:00.71 bitrate=   5.4kbits/s speed=0.0516x elapsed=0:00:13.88    \nframe=   89 fps=6.2 q=19.0 size=       0KiB time=00:00:00.74 bitrate=   5.2kbits/s speed=0.0514x elapsed=0:00:14.42    \nframe=   90 fps=6.0 q=20.0 size=       0KiB time=00:00:00.75 bitrate=   5.1kbits/s speed=0.0501x elapsed=0:00:14.95    \nframe=   92 fps=5.9 q=20.0 size=       0KiB time=00:00:00.76 bitrate=   5.0kbits/s speed=0.0495x elapsed=0:00:15.49    \nframe=   95 fps=5.9 q=19.0 size=       0KiB time=00:00:00.79 bitrate=   4.9kbits/s speed=0.0493x elapsed=0:00:16.04    \nframe=   98 fps=5.9 q=21.0 size=       0KiB time=00:00:00.81 bitrate=   4.7kbits/s speed=0.0492x elapsed=0:00:16.60    \nframe=  102 fps=6.0 q=19.0 size=       0KiB time=00:00:00.84 bitrate=   4.6kbits/s speed=0.0492x elapsed=0:00:17.11    \nframe=  105 fps=5.9 q=20.0 size=       0KiB time=00:00:00.87 bitrate=   4.4kbits/s speed=0.0495x elapsed=0:00:17.67    \nframe=  105 fps=5.8 q=20.0 size=       0KiB time=00:00:00.87 bitrate=   4.4kbits/s speed=0.048x elapsed=0:00:18.22    \nframe=  108 fps=5.8 q=17.0 size=       0KiB time=00:00:00.90 bitrate=   4.3kbits/s speed=0.048x elapsed=0:00:18.75    \nframe=  112 fps=5.8 q=20.0 size=       0KiB time=00:00:00.93 bitrate=   4.1kbits/s speed=0.0484x elapsed=0:00:19.27    \nframe=  116 fps=5.9 q=20.0 size=       0KiB time=00:00:00.96 bitrate=   4.0kbits/s speed=0.0488x elapsed=0:00:19.82    \nframe=  118 fps=5.8 q=19.0 size=       0KiB time=00:00:00.98 bitrate=   3.9kbits/s speed=0.0483x elapsed=0:00:20.37    \nframe=  122 fps=5.8 q=21.0 size=       0KiB time=00:00:01.01 bitrate=   3.8kbits/s speed=0.0486x elapsed=0:00:20.90    \nframe=  127 fps=5.9 q=18.0 size=       0KiB time=00:00:01.05 bitrate=   3.6kbits/s speed=0.0494x elapsed=0:00:21.42    \nframe=  130 fps=5.9 q=15.0 size=     768KiB time=00:00:01.08 bitrate=5807.5kbits/s speed=0.0493x elapsed=0:00:21.96    \nframe=  135 fps=6.0 q=17.0 size=     768KiB time=00:00:01.12 bitrate=5592.4kbits/s speed=0.05x elapsed=0:00:22.48    \nframe=  140 fps=6.1 q=20.0 size=     768KiB time=00:00:01.16 bitrate=5392.7kbits/s speed=0.0507x elapsed=0:00:23.03    \nframe=  143 fps=6.1 q=15.0 size=     768KiB time=00:00:01.19 bitrate=5279.5kbits/s speed=0.0506x elapsed=0:00:23.56    \nframe=  146 fps=6.1 q=28.0 size=     768KiB time=00:00:01.21 bitrate=5171.1kbits/s speed=0.0505x elapsed=0:00:24.09    \nframe=  150 fps=6.1 q=21.0 size=     768KiB time=00:00:01.25 bitrate=5033.2kbits/s speed=0.0508x elapsed=0:00:24.60    \nframe=  154 fps=6.1 q=26.0 size=     768KiB time=00:00:01.28 bitrate=4902.4kbits/s speed=0.051x elapsed=0:00:25.14    \nframe=  157 fps=6.1 q=26.0 size=     768KiB time=00:00:01.30 bitrate=4808.8kbits/s speed=0.051x elapsed=0:00:25.67    \nframe=  158 fps=6.0 q=15.0 size=     768KiB time=00:00:01.31 bitrate=4778.3kbits/s speed=0.0502x elapsed=0:00:26.20    \nframe=  162 fps=6.1 q=22.0 size=     768KiB time=00:00:01.35 bitrate=4660.3kbits/s speed=0.0505x elapsed=0:00:26.74    \nframe=  166 fps=6.1 q=30.0 size=     768KiB time=00:00:01.38 bitrate=4548.0kbits/s speed=0.0507x elapsed=0:00:27.26    \nframe=  169 fps=6.1 q=15.0 size=     768KiB time=00:00:01.40 bitrate=4467.3kbits/s speed=0.0507x elapsed=0:00:27.78    \nframe=  173 fps=6.1 q=17.0 size=     768KiB time=00:00:01.44 bitrate=4364.0kbits/s speed=0.0509x elapsed=0:00:28.31    \nframe=  175 fps=6.1 q=21.0 size=     768KiB time=00:00:01.45 bitrate=4314.1kbits/s speed=0.0506x elapsed=0:00:28.83    \nframe=  179 fps=6.1 q=19.0 size=     768KiB time=00:00:01.49 bitrate=4217.7kbits/s speed=0.0508x elapsed=0:00:29.37    \nframe=  183 fps=6.1 q=19.0 size=     768KiB time=00:00:01.52 bitrate=4125.5kbits/s speed=0.0509x elapsed=0:00:29.94    \nframe=  187 fps=6.1 q=19.0 size=     768KiB time=00:00:01.55 bitrate=4037.3kbits/s speed=0.0511x elapsed=0:00:30.47    \nframe=  188 fps=6.1 q=19.0 size=     768KiB time=00:00:01.56 bitrate=4015.8kbits/s speed=0.0505x elapsed=0:00:31.00    \nframe=  193 fps=6.1 q=19.0 size=     768KiB time=00:00:01.60 bitrate=3911.8kbits/s speed=0.051x elapsed=0:00:31.53    \nframe=  197 fps=6.1 q=19.0 size=     768KiB time=00:00:01.64 bitrate=3832.4kbits/s speed=0.0512x elapsed=0:00:32.06    \nframe=  201 fps=6.2 q=19.0 size=     768KiB time=00:00:01.67 bitrate=3756.1kbits/s speed=0.0514x elapsed=0:00:32.58    \nframe=  203 fps=6.1 q=20.0 size=     768KiB time=00:00:01.69 bitrate=3719.1kbits/s speed=0.0511x elapsed=0:00:33.12    \nframe=  206 fps=6.1 q=28.0 size=     768KiB time=00:00:01.71 bitrate=3664.9kbits/s speed=0.051x elapsed=0:00:33.63    \nframe=  211 fps=6.2 q=31.0 size=     768KiB time=00:00:01.75 bitrate=3578.1kbits/s speed=0.0515x elapsed=0:00:34.17    \nframe=  213 fps=6.1 q=31.0 size=     768KiB time=00:00:01.77 bitrate=3544.5kbits/s speed=0.0511x elapsed=0:00:34.73    \nframe=  217 fps=6.2 q=29.0 size=     768KiB time=00:00:01.80 bitrate=3479.1kbits/s speed=0.0513x elapsed=0:00:35.24    \nframe=  218 fps=6.1 q=16.0 size=     768KiB time=00:00:01.81 bitrate=3463.2kbits/s speed=0.0508x elapsed=0:00:35.77    \nframe=  222 fps=6.1 q=27.0 size=     768KiB time=00:00:01.85 bitrate=3400.8kbits/s speed=0.051x elapsed=0:00:36.30    \nframe=  226 fps=6.1 q=32.0 size=     768KiB time=00:00:01.88 bitrate=3340.6kbits/s speed=0.0511x elapsed=0:00:36.82    \nframe=  230 fps=6.2 q=32.0 size=     768KiB time=00:00:01.91 bitrate=3282.5kbits/s speed=0.0513x elapsed=0:00:37.37    \nframe=  233 fps=6.1 q=16.0 size=     768KiB time=00:00:01.94 bitrate=3240.2kbits/s speed=0.0512x elapsed=0:00:37.91    \nframe=  236 fps=6.1 q=19.0 size=     768KiB time=00:00:01.96 bitrate=3199.0kbits/s speed=0.0511x elapsed=0:00:38.45    \nframe=  241 fps=6.2 q=20.0 size=     768KiB time=00:00:02.00 bitrate=3132.7kbits/s speed=0.0515x elapsed=0:00:38.98    \nframe=  244 fps=6.2 q=19.0 size=     768KiB time=00:00:02.03 bitrate=3094.2kbits/s speed=0.0515x elapsed=0:00:39.51    \nframe=  248 fps=6.2 q=19.0 size=     768KiB time=00:00:02.05 bitrate=3056.6kbits/s speed=0.0514x elapsed=0:00:40.03    \nframe=  252 fps=6.2 q=18.0 size=     768KiB time=00:00:02.10 bitrate=2995.9kbits/s speed=0.0518x elapsed=0:00:40.57    \nframe=  256 fps=6.2 q=16.0 size=     768KiB time=00:00:02.13 bitrate=2949.1kbits/s speed=0.0519x elapsed=0:00:41.11    \nframe=  259 fps=6.2 q=18.0 size=    2304KiB time=00:00:02.15 bitrate=8744.9kbits/s speed=0.0518x elapsed=0:00:41.64    \nframe=  264 fps=6.3 q=17.0 size=    2304KiB time=00:00:02.20 bitrate=8579.3kbits/s speed=0.0522x elapsed=0:00:42.17    \nframe=  269 fps=6.3 q=31.0 size=    2304KiB time=00:00:02.24 bitrate=8419.8kbits/s speed=0.0525x elapsed=0:00:42.70    \nframe=  274 fps=6.3 q=33.0 size=    2304KiB time=00:00:02.28 bitrate=8266.1kbits/s speed=0.0528x elapsed=0:00:43.23    \nframe=  278 fps=6.3 q=19.0 size=    2304KiB time=00:00:02.31 bitrate=8147.2kbits/s speed=0.0529x elapsed=0:00:43.78    \nframe=  282 fps=6.4 q=27.0 size=    2304KiB time=00:00:02.35 bitrate=8031.6kbits/s speed=0.053x elapsed=0:00:44.30    \nframe=  286 fps=6.4 q=27.0 size=    2304KiB time=00:00:02.38 bitrate=7919.3kbits/s speed=0.0532x elapsed=0:00:44.82    \nframe=  287 fps=6.3 q=9.0 size=    2304KiB time=00:00:02.39 bitrate=7891.7kbits/s speed=0.0527x elapsed=0:00:45.36    \nframe=  291 fps=6.3 q=19.0 size=    2304KiB time=00:00:02.42 bitrate=7783.2kbits/s speed=0.0528x elapsed=0:00:45.92    \nframe=  295 fps=6.4 q=19.0 size=    2304KiB time=00:00:02.45 bitrate=7677.7kbits/s speed=0.0529x elapsed=0:00:46.43    \nframe=  298 fps=6.3 q=19.0 size=    2304KiB time=00:00:02.48 bitrate=7600.4kbits/s speed=0.0529x elapsed=0:00:46.98    \nframe=  301 fps=6.3 q=18.0 size=    2304KiB time=00:00:02.50 bitrate=7524.7kbits/s speed=0.0528x elapsed=0:00:47.50    \nframe=  304 fps=6.3 q=19.0 size=    2304KiB time=00:00:02.53 bitrate=7450.4kbits/s speed=0.0527x elapsed=0:00:48.03    \nframe=  308 fps=6.3 q=19.0 size=    2304KiB time=00:00:02.56 bitrate=7353.6kbits/s speed=0.0528x elapsed=0:00:48.57    \nframe=  311 fps=6.3 q=19.0 size=    2304KiB time=00:00:02.59 bitrate=7282.7kbits/s speed=0.0528x elapsed=0:00:49.09    \nframe=  315 fps=6.3 q=22.0 size=    2304KiB time=00:00:02.62 bitrate=7190.2kbits/s speed=0.0529x elapsed=0:00:49.62    \nframe=  317 fps=6.3 q=9.0 size=    2304KiB time=00:00:02.63 bitrate=7167.5kbits/s speed=0.0525x elapsed=0:00:50.15    \nframe=  321 fps=6.3 q=17.0 size=    2304KiB time=00:00:02.67 bitrate=7055.8kbits/s speed=0.0527x elapsed=0:00:50.71    \nframe=  325 fps=6.3 q=25.0 size=    2304KiB time=00:00:02.70 bitrate=6969.0kbits/s speed=0.0529x elapsed=0:00:51.24    \nframe=  329 fps=6.4 q=32.0 size=    2304KiB time=00:00:02.74 bitrate=6884.3kbits/s speed=0.053x elapsed=0:00:51.77    \nframe=  332 fps=6.3 q=17.0 size=    2304KiB time=00:00:02.76 bitrate=6822.1kbits/s speed=0.0529x elapsed=0:00:52.31    \nframe=  336 fps=6.4 q=23.0 size=    2304KiB time=00:00:02.80 bitrate=6740.8kbits/s speed=0.053x elapsed=0:00:52.84    \nframe=  340 fps=6.4 q=31.0 size=    2304KiB time=00:00:02.83 bitrate=6661.5kbits/s speed=0.0531x elapsed=0:00:53.38    \nframe=  343 fps=6.4 q=17.0 size=    2304KiB time=00:00:02.85 bitrate=6603.3kbits/s speed=0.053x elapsed=0:00:53.91    \nframe=  346 fps=6.4 q=25.0 size=    2304KiB time=00:00:02.88 bitrate=6546.0kbits/s speed=0.053x elapsed=0:00:54.41    \nframe=  348 fps=6.3 q=14.0 size=    2304KiB time=00:00:02.90 bitrate=6508.4kbits/s speed=0.0528x elapsed=0:00:54.94    \nframe=  352 fps=6.3 q=24.0 size=    2304KiB time=00:00:02.93 bitrate=6434.4kbits/s speed=0.0529x elapsed=0:00:55.46    \nframe=  356 fps=6.4 q=30.0 size=    2304KiB time=00:00:02.96 bitrate=6362.1kbits/s speed=0.053x elapsed=0:00:55.97    \nframe=  359 fps=6.4 q=24.0 size=    2304KiB time=00:00:02.99 bitrate=6309.0kbits/s speed=0.0529x elapsed=0:00:56.52    \nframe=  364 fps=6.4 q=19.0 size=    2304KiB time=00:00:03.03 bitrate=6222.3kbits/s speed=0.0532x elapsed=0:00:57.04    \nframe=  367 fps=6.4 q=19.0 size=    2304KiB time=00:00:03.05 bitrate=6171.5kbits/s speed=0.0531x elapsed=0:00:57.58    \nframe=  371 fps=6.4 q=21.0 size=    2304KiB time=00:00:03.09 bitrate=6104.9kbits/s speed=0.0532x elapsed=0:00:58.10    \nframe=  372 fps=6.3 q=17.0 size=    2304KiB time=00:00:03.10 bitrate=6088.5kbits/s speed=0.0529x elapsed=0:00:58.64    \nframe=  376 fps=6.4 q=20.0 size=    2304KiB time=00:00:03.13 bitrate=6023.7kbits/s speed=0.0529x elapsed=0:00:59.18    \nframe=  380 fps=6.4 q=19.0 size=    2304KiB time=00:00:03.16 bitrate=5960.3kbits/s speed=0.053x elapsed=0:00:59.70    \nframe=  384 fps=6.4 q=20.0 size=    2304KiB time=00:00:03.20 bitrate=5898.2kbits/s speed=0.0531x elapsed=0:01:00.21    \nframe=  386 fps=6.4 q=17.0 size=    3584KiB time=00:00:03.21 bitrate=9127.5kbits/s speed=0.0529x elapsed=0:01:00.75    \nframe=  392 fps=6.4 q=19.0 size=    3584KiB time=00:00:03.26 bitrate=8987.8kbits/s speed=0.0533x elapsed=0:01:01.30    \nframe=  397 fps=6.4 q=29.0 size=    3584KiB time=00:00:03.30 bitrate=8874.6kbits/s speed=0.0535x elapsed=0:01:01.83    \nframe=  400 fps=6.4 q=16.0 size=    3584KiB time=00:00:03.33 bitrate=8808.0kbits/s speed=0.0535x elapsed=0:01:02.35    \nframe=  405 fps=6.4 q=20.0 size=    3584KiB time=00:00:03.37 bitrate=8699.3kbits/s speed=0.0537x elapsed=0:01:02.87    \nframe=  409 fps=6.4 q=27.0 size=    3584KiB time=00:00:03.40 bitrate=8614.2kbits/s speed=0.0537x elapsed=0:01:03.41    \nframe=  413 fps=6.5 q=27.0 size=    3584KiB time=00:00:03.44 bitrate=8530.8kbits/s speed=0.0538x elapsed=0:01:03.95    \nframe=  414 fps=6.4 q=16.0 size=    3584KiB time=00:00:03.45 bitrate=8510.2kbits/s speed=0.0535x elapsed=0:01:04.49    \nframe=  419 fps=6.4 q=19.0 size=    3584KiB time=00:00:03.49 bitrate=8408.6kbits/s speed=0.0537x elapsed=0:01:05.03    \nframe=  423 fps=6.5 q=19.0 size=    3584KiB time=00:00:03.52 bitrate=8329.1kbits/s speed=0.0538x elapsed=0:01:05.57    \nframe=  427 fps=6.5 q=19.0 size=    3584KiB time=00:00:03.55 bitrate=8251.1kbits/s speed=0.0538x elapsed=0:01:06.09    \nframe=  429 fps=6.4 q=20.0 size=    3584KiB time=00:00:03.57 bitrate=8212.6kbits/s speed=0.0536x elapsed=0:01:06.63    \nframe=  433 fps=6.4 q=19.0 size=    3584KiB time=00:00:03.60 bitrate=8136.8kbits/s speed=0.0537x elapsed=0:01:07.18    \nframe=  437 fps=6.5 q=19.0 size=    3584KiB time=00:00:03.64 bitrate=8062.3kbits/s speed=0.0538x elapsed=0:01:07.70    \nframe=  441 fps=6.5 q=19.0 size=    3584KiB time=00:00:03.67 bitrate=7989.2kbits/s speed=0.0539x elapsed=0:01:08.21    \nframe=  444 fps=6.5 q=20.0 size=    3584KiB time=00:00:03.70 bitrate=7935.2kbits/s speed=0.0538x elapsed=0:01:08.74    \nframe=  448 fps=6.5 q=19.0 size=    3584KiB time=00:00:03.73 bitrate=7864.3kbits/s speed=0.0539x elapsed=0:01:09.26    \nframe=  453 fps=6.5 q=19.0 size=    3584KiB time=00:00:03.76 bitrate=7794.7kbits/s speed=0.054x elapsed=0:01:09.81    \nframe=  457 fps=6.5 q=20.0 size=    3584KiB time=00:00:03.80 bitrate=7726.3kbits/s speed=0.054x elapsed=0:01:10.32    \nframe=  459 fps=6.5 q=20.0 size=    3584KiB time=00:00:03.82 bitrate=7675.9kbits/s speed=0.054x elapsed=0:01:10.88    \nframe=  463 fps=6.5 q=19.0 size=    3584KiB time=00:00:03.85 bitrate=7609.5kbits/s speed=0.054x elapsed=0:01:11.40    \nframe=  468 fps=6.5 q=21.0 size=    3584KiB time=00:00:03.90 bitrate=7528.2kbits/s speed=0.0542x elapsed=0:01:11.94    \nframe=  472 fps=6.5 q=21.0 size=    3584KiB time=00:00:03.93 bitrate=7464.4kbits/s speed=0.0543x elapsed=0:01:12.46    \nframe=  474 fps=6.5 q=21.0 size=    3584KiB time=00:00:03.95 bitrate=7432.9kbits/s speed=0.0541x elapsed=0:01:13.01    \nframe=  478 fps=6.5 q=19.0 size=    3584KiB time=00:00:03.98 bitrate=7370.7kbits/s speed=0.0542x elapsed=0:01:13.52    \nframe=  482 fps=6.5 q=19.0 size=    3584KiB time=00:00:04.01 bitrate=7309.6kbits/s speed=0.0542x elapsed=0:01:14.09    \nframe=  485 fps=6.5 q=20.0 size=    3584KiB time=00:00:04.04 bitrate=7264.4kbits/s speed=0.0542x elapsed=0:01:14.62    \nframe=  489 fps=6.5 q=19.0 size=    3584KiB time=00:00:04.07 bitrate=7204.9kbits/s speed=0.0542x elapsed=0:01:15.14    \nframe=  491 fps=6.5 q=24.0 size=    3584KiB time=00:00:04.09 bitrate=7175.6kbits/s speed=0.0541x elapsed=0:01:15.67    \nframe=  496 fps=6.5 q=20.0 size=    3584KiB time=00:00:04.13 bitrate=7103.3kbits/s speed=0.0542x elapsed=0:01:16.20    \nframe=  500 fps=6.5 q=21.0 size=    3584KiB time=00:00:04.16 bitrate=7046.4kbits/s speed=0.0543x elapsed=0:01:16.74    \nframe=  503 fps=6.5 q=22.0 size=    3584KiB time=00:00:04.19 bitrate=7004.4kbits/s speed=0.0542x elapsed=0:01:17.29    \nframe=  507 fps=6.5 q=20.0 size=    3584KiB time=00:00:04.22 bitrate=6949.1kbits/s speed=0.0543x elapsed=0:01:17.84    \nframe=  512 fps=6.5 q=20.0 size=    3584KiB time=00:00:04.26 bitrate=6881.3kbits/s speed=0.0544x elapsed=0:01:18.38    \nframe=  515 fps=6.5 q=29.0 size=    4864KiB time=00:00:04.29 bitrate=9284.5kbits/s speed=0.0544x elapsed=0:01:18.89    \nframe=  520 fps=6.5 q=24.0 size=    4864KiB time=00:00:04.33 bitrate=9195.2kbits/s speed=0.0546x elapsed=0:01:19.42    \nframe=  525 fps=6.6 q=20.0 size=    4864KiB time=00:00:04.37 bitrate=9107.6kbits/s speed=0.0547x elapsed=0:01:19.97    \nframe=  529 fps=6.6 q=22.0 size=    4864KiB time=00:00:04.40 bitrate=9038.8kbits/s speed=0.0548x elapsed=0:01:20.49    \nframe=  533 fps=6.6 q=21.0 size=    4864KiB time=00:00:04.44 bitrate=8970.9kbits/s speed=0.0548x elapsed=0:01:21.03    \nframe=  538 fps=6.6 q=21.0 size=    4864KiB time=00:00:04.48 bitrate=8887.6kbits/s speed=0.055x elapsed=0:01:21.54    \nframe=  542 fps=6.6 q=20.0 size=    4864KiB time=00:00:04.51 bitrate=8822.0kbits/s speed=0.055x elapsed=0:01:22.07    \nframe=  545 fps=6.6 q=20.0 size=    4864KiB time=00:00:04.54 bitrate=8773.4kbits/s speed=0.055x elapsed=0:01:22.59    \nframe=  550 fps=6.6 q=21.0 size=    4864KiB time=00:00:04.58 bitrate=8693.6kbits/s speed=0.0551x elapsed=0:01:23.11    \nframe=  555 fps=6.6 q=21.0 size=    4864KiB time=00:00:04.62 bitrate=8615.3kbits/s speed=0.0553x elapsed=0:01:23.64    \nframe=  557 fps=6.6 q=21.0 size=    4864KiB time=00:00:04.64 bitrate=8584.4kbits/s speed=0.0551x elapsed=0:01:24.17    \nframe=  561 fps=6.6 q=20.0 size=    4864KiB time=00:00:04.67 bitrate=8523.2kbits/s speed=0.0552x elapsed=0:01:24.69    \nframe=  566 fps=6.6 q=19.0 size=    4864KiB time=00:00:04.71 bitrate=8447.9kbits/s speed=0.0554x elapsed=0:01:25.20    \nframe=  571 fps=6.7 q=20.0 size=    4864KiB time=00:00:04.75 bitrate=8373.9kbits/s speed=0.0555x elapsed=0:01:25.73    \nframe=  573 fps=6.6 q=11.0 size=    4864KiB time=00:00:04.77 bitrate=8344.7kbits/s speed=0.0553x elapsed=0:01:26.29    \nframe=  576 fps=6.6 q=19.0 size=    4864KiB time=00:00:04.80 bitrate=8301.2kbits/s speed=0.0553x elapsed=0:01:26.82    \nframe=  576 fps=6.6 q=19.0 size=    4864KiB time=00:00:04.80 bitrate=8301.2kbits/s speed=0.055x elapsed=0:01:27.34    \nframe=  576 fps=6.6 q=19.0 size=    4864KiB time=00:00:04.80 bitrate=8301.2kbits/s speed=0.0546x elapsed=0:01:27.89    \nframe=  576 fps=6.5 q=19.0 size=    4864KiB time=00:00:04.80 bitrate=8301.2kbits/s speed=0.0543x elapsed=0:01:28.44    \nframe=  576 fps=6.5 q=19.0 size=    4864KiB time=00:00:04.80 bitrate=8301.2kbits/s speed=0.054x elapsed=0:01:28.96    \nframe=  576 fps=6.4 q=19.0 size=    4864KiB time=00:00:04.80 bitrate=8301.2kbits/s speed=0.0536x elapsed=0:01:29.49    \n[out#0/webm @ 000001e0a4d39b80] video:5776KiB audio:0KiB subtitle:0KiB other streams:0KiB global headers:0KiB muxing overhead: 0.082454%\nframe=  600 fps=6.7 q=18.0 Lsize=    5781KiB time=00:00:05.00 bitrate=9471.5kbits/s speed=0.0558x elapsed=0:01:29.67    \n",
  "seconds": 89.80535006523132,
  "probe_out": {}
}